<svg width="12" height="12" viewBox="0 0 12 12" fill="none" xmlns="http://www.w3.org/2000/svg">
<g clip-path="url(#clip0_1_25)">
<path d="M1 10.5C0.999958 9.73016 1.22207 8.97667 1.63967 8.32994C2.05728 7.68322 2.65264 7.17074 3.3543 6.85401C4.05596 6.53728 4.83412 6.42975 5.59538 6.54434C6.35664 6.65893 7.06866 6.99075 7.646 7.5" stroke="#7C6E6E" stroke-width="2" stroke-linecap="round" stroke-linejoin="round"/>
<path d="M5 6.5C6.38071 6.5 7.5 5.38071 7.5 4C7.5 2.61929 6.38071 1.5 5 1.5C3.61929 1.5 2.5 2.61929 2.5 4C2.5 5.38071 3.61929 6.5 5 6.5Z" stroke="#7C6E6E" stroke-width="2" stroke-linecap="round" stroke-linejoin="round"/>
<path d="M9.5 8V11" stroke="#7C6E6E" stroke-width="2" stroke-linecap="round" stroke-linejoin="round"/>
<path d="M11 9.5H8" stroke="#7C6E6E" stroke-width="2" stroke-linecap="round" stroke-linejoin="round"/>
</g>
<defs>
<clipPath id="clip0_1_25">
<rect width="12" height="12" fill="white"/>
</clipPath>
</defs>
</svg>
