<svg width="34" height="35" viewBox="0 0 34 35" fill="none" xmlns="http://www.w3.org/2000/svg">
<path d="M8 0.5H26C30.1421 0.5 33.5 3.85786 33.5 8V27C33.5 31.1421 30.1421 34.5 26 34.5H8C3.85786 34.5 0.5 31.1421 0.5 27V8C0.5 3.85786 3.85786 0.5 8 0.5Z" fill="white"/>
<path d="M8 0.5H26C30.1421 0.5 33.5 3.85786 33.5 8V27C33.5 31.1421 30.1421 34.5 26 34.5H8C3.85786 34.5 0.5 31.1421 0.5 27V8C0.5 3.85786 3.85786 0.5 8 0.5Z" stroke="black"/>
<path d="M25 11L14 22L9 17" stroke="black" stroke-width="2" stroke-linecap="round" stroke-linejoin="round"/>
</svg>
