<?xml version="1.0" encoding="utf-8"?>
<!-- Generator: Adobe Illustrator 27.5.0, SVG Export Plug-In . SVG Version: 6.00 Build 0)  -->
<svg version="1.1" xmlns="http://www.w3.org/2000/svg" xmlns:xlink="http://www.w3.org/1999/xlink" x="0px" y="0px"
	 viewBox="0 0 1122 1122" style="enable-background:new 0 0 1122 1122;" xml:space="preserve">
<g id="Object">
	<g>
		<path style="fill:none;" d="M457.22,480.508l225.802-0.142c15.445-0.025,31.326-14.813,31.326-30.263l-0.121-177.631
			l-287.043,0.193l0.145,177.634C427.328,465.75,441.793,480.532,457.22,480.508z M605.634,299.772l58.868-0.021
			c9.72-0.027,17.576,7.84,17.594,17.523l0.091,118.288c-0.024,9.711-7.874,17.593-17.557,17.593l-58.929,0.024
			c-9.683,0.03-17.551-7.822-17.569-17.533l-0.085-118.318C588.047,307.645,595.914,299.772,605.634,299.772z"/>
		<path style="fill:#616E7D;" d="M780.048,255.743c-9.308-9.253-26.81-15.451-39.841-15.451
			c-13.042,0.024-439.258,0.302-439.258,0.302c-28.705,0.03-51.933,23.301-51.933,51.987l0.387,537.205
			c0,28.698,23.294,51.957,51.987,51.92l519.66-0.336c28.692-0.015,51.975-23.291,51.932-51.99c0,0-0.309-456.21-0.309-463.225
			c-0.024-11.32-2.729-20.643-10.034-27.912C857.938,333.561,806.49,282.184,780.048,255.743z M714.227,272.471l0.121,177.631
			c0,15.451-15.881,30.238-31.326,30.263l-225.802,0.142c-15.427,0.024-29.892-14.758-29.892-30.209l-0.145-177.634L714.227,272.471
			z M785.58,859.157H336.426v-60.233h0.055V564.092c0-18.671,14.525-33.846,32.452-33.846h384.16
			c17.926,0,32.452,15.175,32.452,33.846v234.832h0.036V859.157z"/>
		<path style="fill:#616E7D;" d="M605.701,453.179l58.929-0.024c9.683,0,17.533-7.882,17.557-17.593l-0.091-118.288
			c-0.018-9.683-7.874-17.551-17.594-17.523l-58.868,0.021c-9.72,0-17.587,7.874-17.587,17.557l0.085,118.318
			C588.15,445.357,596.017,453.21,605.701,453.179z"/>
		<path style="fill:#FFFFFF;" d="M753.092,530.247h-384.16c-17.926,0-32.452,15.175-32.452,33.846v234.832h449.063V564.092
			C785.544,545.422,771.019,530.247,753.092,530.247z M744.68,728.881H377.327v-16.676H744.68V728.881z M744.68,678.834H377.327
			v-16.677H744.68V678.834z M744.68,628.804H377.327v-16.692H744.68V628.804z"/>
		<polygon style="fill:#AAD4C8;" points="785.544,798.924 336.481,798.924 336.426,798.924 336.426,859.157 785.58,859.157 
			785.58,798.924 		"/>
		<rect x="377.327" y="612.112" style="fill:#82BFAB;" width="367.353" height="16.692"/>
		<rect x="377.327" y="662.157" style="fill:#82BFAB;" width="367.353" height="16.677"/>
		<rect x="377.327" y="712.204" style="fill:#82BFAB;" width="367.353" height="16.676"/>
	</g>
</g>
</svg>
