<?xml version="1.0" encoding="utf-8"?>
<!-- Generator: Adobe Illustrator 27.5.0, SVG Export Plug-In . SVG Version: 6.00 Build 0)  -->
<svg version="1.1" xmlns="http://www.w3.org/2000/svg" xmlns:xlink="http://www.w3.org/1999/xlink" x="0px" y="0px"
	 viewBox="0 0 1122 1122" style="enable-background:new 0 0 1122 1122;" xml:space="preserve">
<g id="Object">
	<g>
		<path style="fill:#AAD4C8;" d="M818.889,344.884H445.447l1.144,2.881l27.903,69.378l340.528,0.275c0,0,12.337,0.696,19.191,2.242
			l-0.711-0.254v-59.927C833.502,351.408,826.959,344.884,818.889,344.884z"/>
		<path style="fill:#616E7D;" d="M815.022,417.418l-340.528-0.275l-27.903-69.378l-11.799-29.359H271.804
			c-17.109,0-30.953,13.85-30.953,30.96v423.272c0,17.088,13.844,30.956,30.953,30.956h578.374
			c17.107,0,30.972-13.868,30.972-30.956V481.4c0-29.404-19.921-54.145-46.937-61.74
			C827.359,418.114,815.022,417.418,815.022,417.418z M874.277,734.437v23.101H247.771v-23.101H874.277z"/>
		<rect x="247.771" y="734.437" style="fill:#82BFAB;" width="626.506" height="23.101"/>
	</g>
</g>
</svg>
